<svg height="512pt" viewBox="0 -2 512 511" width="512pt" xmlns="http://www.w3.org/2000/svg"><path d="m236.152344 118.574219c0 65.210937-52.867188 118.078125-118.078125 118.078125-65.210938 0-118.074219-52.867188-118.074219-118.078125 0-65.210938 52.863281-118.074219 118.074219-118.074219 65.210937 0 118.078125 52.863281 118.078125 118.074219zm0 0" fill="#fab659"/><path d="m118.074219 201.640625c-45.800781 0-83.0625-37.261719-83.0625-83.066406 0-45.800781 37.261719-83.0625 83.0625-83.0625 45.804687 0 83.066406 37.261719 83.066406 83.0625 0 45.804687-37.265625 83.066406-83.066406 83.066406zm0 0" fill="#f5e277"/><path d="m115.261719 163.195312c-15.121094-.375-26.496094-8.5-26.496094-15.496093 0-3.5 3.125-8.75 7-8.75 4.75 0 8.496094 8.121093 19.496094 9.375v-24.875c-11.375-4.25-24.246094-9.125-24.246094-25.121094 0-15.875 11.746094-22.746094 24.246094-24.375v-3.496094c0-1.625 1.875-3.125 4.25-3.125 2.125 0 4.25 1.5 4.25 3.125v3.25c8.125.246094 21.371093 2.625 21.371093 9.871094 0 2.875-2 8.625-6.625 8.625-3.5 0-6.375-4-14.746093-4.625v22c11.121093 4.125 23.621093 9.75 23.621093 26.746094 0 15.375-9.625 24.246093-23.621093 26.496093v3.875c0 1.625-2.125 3.125-4.25 3.125-2.375 0-4.25-1.5-4.25-3.125zm1-56.371093v-18.871094c-6.25 1-10 4-10 8.75 0 5.5 4.25 7.871094 10 10.121094zm6.5 19.625v21.746093c5.5-1.125 9.375-4.375 9.375-10.246093 0-6.125-4-9.125-9.375-11.5zm0 0" fill="#fff"/><path d="m512 118.574219c0 65.210937-52.863281 118.078125-118.074219 118.078125-65.210937 0-118.078125-52.867188-118.078125-118.078125 0-65.210938 52.867188-118.074219 118.078125-118.074219 65.210938 0 118.074219 52.863281 118.074219 118.074219zm0 0" fill="#6380d2"/><path d="m393.925781 201.640625c-45.804687 0-83.066406-37.261719-83.066406-83.066406 0-45.800781 37.261719-83.0625 83.066406-83.0625 45.800781 0 83.0625 37.261719 83.0625 83.0625 0 45.804687-37.261719 83.066406-83.0625 83.066406zm0 0" fill="#7f9ae2"/><path d="m385.347656 140.160156c0 4.78125 2.53125 14.203125 15.046875 14.203125 11.386719 0 14.339844-8.015625 14.339844-15.046875 0-3.9375 2.8125-5.34375 9.140625-5.34375 6.46875 0 9.140625 1.546875 9.140625 8.4375 0 17.296875-14.203125 27.980469-33.46875 27.980469-20.667969 0-32.480469-12.230469-32.480469-30.230469v-2.390625h-6.464844c-3.375 0-5.765624-2.53125-5.765624-6.328125 0-3.652344 2.386718-6.609375 5.765624-6.609375h6.464844v-9.839843h-6.464844c-3.375 0-5.765624-2.53125-5.765624-6.328126 0-3.65625 2.386718-6.609374 5.765624-6.609374h6.464844v-3.09375c0-23.480469 14.484375-32.199219 32.480469-32.199219 19.265625 0 33.46875 10.125 33.46875 26.996093 0 6.75-2.8125 8.296876-9.140625 8.296876-6.46875 0-9.140625-1.546876-9.140625-5.34375 0-5.484376-2.53125-13.921876-14.480469-13.921876-9.5625 0-14.90625 5.203126-14.90625 16.171876v3.09375h13.21875c2.949219 0 5.90625 2.953124 5.90625 6.609374s-2.957031 6.328126-5.90625 6.328126h-13.21875v9.839843h13.21875c2.949219 0 5.90625 2.957031 5.90625 6.472657 0 3.792968-2.957031 6.464843-5.90625 6.464843h-13.21875zm0 0" fill="#fff"/><path d="m236.152344 389.050781c0 65.210938-52.867188 118.074219-118.078125 118.074219-65.210938 0-118.074219-52.863281-118.074219-118.074219 0-65.210937 52.863281-118.074219 118.074219-118.074219 65.210937 0 118.078125 52.863282 118.078125 118.074219zm0 0" fill="#00ccac"/><path d="m118.074219 472.117188c-45.800781 0-83.0625-37.261719-83.0625-83.066407 0-45.800781 37.261719-83.0625 83.0625-83.0625 45.804687 0 83.066406 37.261719 83.066406 83.0625 0 45.804688-37.265625 83.066407-83.066406 83.066407zm0 0" fill="#76e6d5"/><path d="m145.660156 425.386719h-30.816406l4.847656-33.914063h17.898438c2.957031 0 4.4375-3.09375 4.4375-6.324218 0-3.09375-1.480469-6.324219-4.4375-6.324219h-16.148438l1.882813-12.78125c1.078125-7.539063 6.460937-13.460938 16.28125-13.460938h5.382812c3.769531 0 5.921875-3.902343 5.921875-7.667969 0-3.632812-2.152344-7.535156-5.921875-7.535156h-4.707031c-16.554688 0-31.894531 11.976563-34.316406 28.664063l-1.882813 12.78125h-9.285156c-2.828125 0-4.441406 3.230469-4.441406 6.324219 0 3.230468 1.613281 6.324218 4.441406 6.324218h7.535156l-4.710937 33.914063h-7.132813c-3.496093 0-5.246093 3.765625-5.246093 7.667969 0 3.769531 1.75 7.671874 5.246093 7.671874h55.175781c3.496094 0 5.246094-3.902343 5.246094-7.671874 0-3.902344-1.75-7.667969-5.25-7.667969zm0 0" fill="#fff"/><path d="m512 389.050781c0 65.210938-52.863281 118.074219-118.074219 118.074219-65.210937 0-118.078125-52.863281-118.078125-118.074219 0-65.210937 52.867188-118.074219 118.078125-118.074219 65.210938 0 118.074219 52.863282 118.074219 118.074219zm0 0" fill="#e8738b"/><path d="m393.925781 472.117188c-45.804687 0-83.066406-37.261719-83.066406-83.066407 0-45.800781 37.261719-83.0625 83.066406-83.0625 45.800781 0 83.0625 37.261719 83.0625 83.0625 0 45.804688-37.261719 83.066407-83.0625 83.066407zm0 0" fill="#fd99c8"/><path d="m403.152344 394.101562 27.550781-47.875c.398437-.667968.398437-1.339843.398437-1.738281 0-4.28125-6.820312-7.222656-11.5-7.222656-2.808593 0-4.011718 1.203125-5.214843 3.476563l-20.460938 38.648437-20.328125-38.648437c-1.203125-2.40625-2.539062-3.476563-5.347656-3.476563-4.679688 0-11.503906 2.941406-11.503906 7.222656 0 .398438.136718 1.070313.402344 1.738281l27.683593 47.875c.265625.402344.398438 1.070313.398438 1.738282v3.570312h-9.5c-2.835938 0-4.257813 3.097656-4.257813 6.0625 0 3.097656 1.421875 6.0625 4.257813 6.0625h9.5v4.984375h-9.5c-2.835938 0-4.257813 3.09375-4.257813 6.0625 0 3.097657 1.421875 6.0625 4.257813 6.0625h9.5v6.710938c0 3.609375 4.414062 5.480469 8.691406 5.480469 4.414063 0 8.695313-1.871094 8.695313-5.480469v-6.710938h9.5c2.835937 0 4.257812-2.964843 4.257812-6.0625 0-2.96875-1.421875-6.0625-4.257812-6.0625h-9.5v-4.984375h9.5c2.835937 0 4.257812-2.964844 4.257812-6.0625 0-2.96875-1.421875-6.0625-4.257812-6.0625h-9.5v-3.570312c0-.667969.269531-1.335938.535156-1.738282zm0 0" fill="#fff"/></svg>